<svg xmlns="http://www.w3.org/2000/svg" width="1920" height="1080" viewBox="0 0 1920 1080">
<rect width="1920" height="1080" fill="#F7FAF6"/><rect width="1920" height="18" fill="#2C754B"/>
<text x="92" y="118" font-family="Arial, sans-serif" font-size="58" font-weight="700" fill="#1D2733">Ecopark Bicycle Parking</text>
<text x="96" y="170" font-family="Arial, sans-serif" font-size="25" fill="#5C6978">Requirement Analysis Session · Use-Case Overview</text>
<rect x="1538" y="70" width="250" height="60" rx="18" fill="#2C754B"/><text x="1663" y="109" font-family="Arial, sans-serif" font-size="25" font-weight="700" text-anchor="middle" fill="#FFFFFF">UML UC</text>
<rect x="92" y="210" width="1736" height="94" rx="22" fill="#FFFFFF" stroke="#C9D4DD" stroke-width="2"/><text x="122" y="260" font-family="Arial, sans-serif" font-size="24" font-weight="700" fill="#2C754B">Scope</text><text x="226" y="260" font-family="Arial, sans-serif" font-size="25" fill="#1D2733">Website quản lý thuê-trả xe đạp tại các điểm tập kết Ecopark; tập trung vào tài khoản, chọn xe, đặt cọc, thuê xe, trả xe và thống kê vận hành.</text>
<rect x="430" y="350" width="1060" height="580" rx="26" fill="#FFFFFF" stroke="#C9D4DD" stroke-width="3"/><text x="960" y="392" font-family="Arial, sans-serif" font-size="28" font-weight="700" text-anchor="middle" fill="#1F5239">Ecopark Bicycle Parking System</text>
<line x1="342" y1="447" x2="522" y2="515" stroke="#5C6978" stroke-width="4"/>
<line x1="342" y1="447" x2="522" y2="725" stroke="#5C6978" stroke-width="4"/>
<line x1="342" y1="447" x2="1050" y2="725" stroke="#5C6978" stroke-width="4"/>
<line x1="342" y1="801" x2="522" y2="725" stroke="#5C6978" stroke-width="4"/>
<line x1="342" y1="801" x2="1050" y2="725" stroke="#5C6978" stroke-width="4"/>
<line x1="342" y1="801" x2="786" y2="870" stroke="#5C6978" stroke-width="4"/>
<line x1="1532" y1="801" x2="1134" y2="870" stroke="#5C6978" stroke-width="4"/>
<line x1="1532" y1="447" x2="1398" y2="515" stroke="#5C6978" stroke-width="4"/>
<line x1="227" y1="560" x2="227" y2="486" stroke="#1F5239" stroke-width="4"/><polygon points="227,486 214,508 240,508" fill="#F7FAF6" stroke="#1F5239" stroke-width="3"/><text x="255" y="532" font-family="Arial, sans-serif" font-size="20" fill="#5C6978">inherits</text>
<rect x="112" y="408" width="230" height="78" rx="24" fill="#E7F4EB" stroke="#1F5239" stroke-width="3"/>
<text x="227" y="455" font-family="Arial, sans-serif" font-size="23" font-weight="700" text-anchor="middle" fill="#1D2733">Customer/User</text>
<rect x="112" y="560" width="230" height="78" rx="24" fill="#E7F4EB" stroke="#1F5239" stroke-width="3"/>
<text x="227" y="591" font-family="Arial, sans-serif" font-size="21" font-weight="700" text-anchor="middle" fill="#1D2733">Resident</text><text x="227" y="619" font-family="Arial, sans-serif" font-size="21" font-weight="700" text-anchor="middle" fill="#1D2733">Customer</text>
<rect x="112" y="762" width="230" height="78" rx="24" fill="#E8F0FA" stroke="#245487" stroke-width="3"/>
<text x="227" y="793" font-family="Arial, sans-serif" font-size="21" font-weight="700" text-anchor="middle" fill="#1D2733">Station Staff</text><text x="227" y="821" font-family="Arial, sans-serif" font-size="21" font-weight="700" text-anchor="middle" fill="#1D2733">/ Manager</text>
<rect x="1532" y="408" width="230" height="78" rx="24" fill="#E8F0FA" stroke="#245487" stroke-width="3"/>
<text x="1647" y="439" font-family="Arial, sans-serif" font-size="21" font-weight="700" text-anchor="middle" fill="#1D2733">GPS / Map</text><text x="1647" y="467" font-family="Arial, sans-serif" font-size="21" font-weight="700" text-anchor="middle" fill="#1D2733">Service</text>
<rect x="1532" y="762" width="230" height="78" rx="24" fill="#FCF3E0" stroke="#BD7C23" stroke-width="3"/>
<text x="1647" y="793" font-family="Arial, sans-serif" font-size="21" font-weight="700" text-anchor="middle" fill="#1D2733">Admin</text><text x="1647" y="821" font-family="Arial, sans-serif" font-size="21" font-weight="700" text-anchor="middle" fill="#1D2733">/ Operator</text>
<ellipse cx="696" cy="515" rx="174" ry="60" fill="#E7F4EB" stroke="#1F5239" stroke-width="4"/><text x="696" y="498" font-family="Arial, sans-serif" font-size="25" font-weight="700" text-anchor="middle" fill="#1F5239">UC001</text><text x="696" y="530" font-family="Arial, sans-serif" font-size="24" text-anchor="middle" fill="#1D2733">Register &amp; Verify</text><text x="696" y="558" font-family="Arial, sans-serif" font-size="24" text-anchor="middle" fill="#1D2733">Account</text>
<ellipse cx="1224" cy="515" rx="174" ry="60" fill="#E7F4EB" stroke="#1F5239" stroke-width="4"/><text x="1224" y="498" font-family="Arial, sans-serif" font-size="25" font-weight="700" text-anchor="middle" fill="#1F5239">UC002</text><text x="1224" y="530" font-family="Arial, sans-serif" font-size="24" text-anchor="middle" fill="#1D2733">Find Station &amp;</text><text x="1224" y="558" font-family="Arial, sans-serif" font-size="24" text-anchor="middle" fill="#1D2733">Select Bicycle</text>
<ellipse cx="696" cy="725" rx="174" ry="60" fill="#E7F4EB" stroke="#1F5239" stroke-width="4"/><text x="696" y="708" font-family="Arial, sans-serif" font-size="25" font-weight="700" text-anchor="middle" fill="#1F5239">UC003</text><text x="696" y="740" font-family="Arial, sans-serif" font-size="24" text-anchor="middle" fill="#1D2733">Process Rental</text><text x="696" y="768" font-family="Arial, sans-serif" font-size="24" text-anchor="middle" fill="#1D2733">and Deposit</text>
<ellipse cx="1224" cy="725" rx="174" ry="60" fill="#E7F4EB" stroke="#1F5239" stroke-width="4"/><text x="1224" y="708" font-family="Arial, sans-serif" font-size="25" font-weight="700" text-anchor="middle" fill="#1F5239">UC004</text><text x="1224" y="740" font-family="Arial, sans-serif" font-size="24" text-anchor="middle" fill="#1D2733">Return Bicycle</text><text x="1224" y="768" font-family="Arial, sans-serif" font-size="24" text-anchor="middle" fill="#1D2733">and Issue Ticket</text>
<ellipse cx="960" cy="870" rx="174" ry="60" fill="#E7F4EB" stroke="#1F5239" stroke-width="4"/><text x="960" y="853" font-family="Arial, sans-serif" font-size="25" font-weight="700" text-anchor="middle" fill="#1F5239">UC005</text><text x="960" y="885" font-family="Arial, sans-serif" font-size="24" text-anchor="middle" fill="#1D2733">Manage Fleet</text><text x="960" y="913" font-family="Arial, sans-serif" font-size="24" text-anchor="middle" fill="#1D2733">and Reports</text>
<rect x="92" y="968" width="1736" height="64" rx="18" fill="#EEF5F0" stroke="#2C754B" stroke-width="2"/><text x="120" y="1016" font-family="Arial, sans-serif" font-size="23" fill="#1F5239">Modeling rules: Actor + Use Case only · no front-end/back-end/database actors · UC = observable business goal.</text>
</svg>